<?xml version="1.0" standalone="no"?>
<!DOCTYPE svg PUBLIC "-//W3C//DTD SVG 20010904//EN"
 "http://www.w3.org/TR/2001/REC-SVG-20010904/DTD/svg10.dtd">
<svg version="1.0" xmlns="http://www.w3.org/2000/svg"
 width="512.000000pt" height="342.000000pt" viewBox="0 0 512.000000 342.000000"
 preserveAspectRatio="xMidYMid meet">

<g transform="translate(0.000000,342.000000) scale(0.100000,-0.100000)"
fill="#000000" stroke="none">
<path d="M2335 3093 c-104 -64 -203 -123 -220 -133 -16 -9 -124 -75 -240 -145
-115 -70 -228 -138 -250 -150 -22 -13 -79 -47 -125 -75 -47 -29 -164 -100
-260 -158 -180 -108 -199 -119 -313 -187 l-67 -39 0 -103 0 -104 23 12 c23 12
86 50 302 182 72 44 177 108 235 142 58 34 134 80 170 102 216 133 382 233
386 233 3 0 24 13 47 28 23 16 145 91 271 166 l229 138 32 -15 c18 -9 147 -84
286 -168 140 -83 270 -161 289 -172 19 -10 136 -80 260 -155 124 -74 240 -144
259 -154 19 -11 145 -86 280 -167 135 -81 256 -153 269 -160 l22 -12 0 104 0
103 -67 39 c-38 22 -72 42 -77 44 -4 2 -55 32 -113 67 -58 35 -107 64 -109 64
-1 0 -40 23 -86 51 -46 29 -97 60 -114 69 -17 10 -65 39 -107 64 -41 25 -79
46 -82 46 -4 0 -19 8 -33 19 -15 10 -43 28 -62 39 -19 10 -75 44 -125 74 -111
67 -287 171 -300 178 -5 3 -100 58 -210 124 -110 65 -202 120 -205 121 -3 2
-90 -49 -195 -112z"/>
<path d="M2552 2775 c-46 -38 -47 -65 -10 -148 l33 -72 0 -205 0 -205 -33 -58
c-25 -45 -32 -66 -27 -88 8 -35 19 -30 45 22 16 31 26 39 47 39 14 0 34 -7 44
-16 17 -15 16 -18 -7 -61 -30 -58 -30 -65 2 -53 64 25 82 98 42 167 -21 35
-23 48 -20 178 4 204 16 283 52 351 30 58 35 83 21 119 -7 17 -12 13 -35 -32
-30 -61 -61 -75 -102 -49 -35 24 -40 42 -20 82 28 60 17 71 -32 29z"/>
<path d="M2857 2633 c-4 -3 -7 -23 -7 -44 0 -22 -6 -39 -13 -42 -18 -7 -33
-215 -30 -414 1 -164 17 -218 75 -253 37 -22 117 -27 136 -8 16 16 15 119 -3
193 -8 33 -17 107 -20 165 -8 160 -27 320 -36 320 -5 0 -9 15 -9 33 0 26 -6
36 -25 45 -29 13 -58 15 -68 5z m63 -44 c0 -5 -4 -9 -9 -9 -5 0 -16 -3 -25 -6
-10 -4 -16 -1 -16 7 0 8 11 15 25 15 14 1 25 -2 25 -7z m0 -69 c0 -5 -4 -10
-9 -10 -5 0 -16 -3 -25 -6 -9 -3 -16 -1 -16 4 0 9 16 17 43 21 4 0 7 -3 7 -9z
m15 -226 l1 -184 -33 0 c-18 0 -33 5 -33 10 0 6 11 10 25 10 15 0 25 6 25 14
0 19 -17 29 -25 16 -7 -12 -25 -13 -25 -2 0 4 10 12 23 17 12 6 24 21 25 34 3
21 0 23 -22 19 -32 -6 -34 5 -3 19 22 10 25 23 18 63 -1 2 -6 -1 -13 -8 -14
-14 -28 -16 -28 -4 0 4 10 12 22 17 12 6 22 20 23 33 2 25 -10 38 -20 22 -7
-12 -25 -13 -25 -2 0 4 10 12 23 17 30 13 30 51 -1 48 -12 -2 -22 2 -22 7 0 6
7 10 15 10 8 0 19 9 25 21 7 11 15 18 18 14 4 -4 7 -90 7 -191z m-5 -269 c0
-63 -1 -65 -25 -65 -24 0 -25 2 -25 65 0 63 1 65 25 65 24 0 25 -2 25 -65z"/>
<path d="M2150 2598 c0 -62 40 -162 83 -214 22 -26 30 -29 74 -26 46 3 51 6
76 47 31 52 57 135 57 182 l0 33 -145 0 c-144 0 -145 0 -145 -22z"/>
<path d="M1910 2470 c-8 -5 -78 -46 -155 -91 -324 -189 -431 -253 -447 -267
-25 -21 -22 -57 7 -100 l25 -37 -22 -16 c-21 -17 -21 -17 -3 -45 10 -16 35
-46 56 -66 30 -30 43 -37 66 -33 15 2 62 6 103 9 41 3 126 11 188 17 131 12
130 12 189 -79 19 -29 38 -50 43 -47 9 5 -29 77 -72 138 -23 32 -33 33 -190
13 -62 -8 -154 -18 -204 -22 l-91 -6 -38 46 c-31 39 -35 49 -25 61 11 14 17
11 46 -21 45 -48 57 -45 230 57 445 264 484 288 484 311 0 29 -34 88 -80 141
-42 48 -74 59 -110 37z"/>
<path d="M3130 2453 c0 -3 7 -14 15 -23 19 -21 10 -47 -18 -56 -15 -5 -27 0
-43 20 -29 33 -44 14 -17 -22 13 -17 36 -29 69 -37 86 -19 236 -112 287 -177
42 -54 66 -64 42 -18 -9 17 -13 35 -10 40 12 19 43 10 64 -17 l20 -28 1 26 c0
33 -14 45 -75 63 -73 23 -229 130 -270 187 -19 27 -42 49 -50 49 -8 0 -15 -3
-15 -7z"/>
<path d="M2265 2247 c-9 -114 8 -156 60 -143 33 8 41 58 24 152 -13 74 -13 74
-45 74 l-32 0 -7 -83z"/>
<path d="M3226 2055 c-18 -64 -25 -171 -26 -392 0 -39 -2 -42 -27 -40 -27 2
-28 0 -34 -53 -3 -30 -15 -71 -26 -90 -12 -19 -31 -68 -43 -108 -19 -62 -21
-86 -15 -155 4 -45 8 -102 9 -127 1 -38 6 -47 29 -58 66 -32 81 6 50 131 -15
64 -15 74 1 150 12 58 31 105 63 160 25 42 49 77 54 77 15 0 78 -108 99 -170
30 -90 36 -166 16 -232 -31 -107 -17 -140 50 -118 31 10 33 14 32 58 0 26 3
80 7 119 10 94 -6 178 -52 268 -26 52 -33 78 -30 102 6 34 -12 59 -36 50 -11
-4 -16 12 -21 71 -6 80 -19 102 -58 102 -16 0 -18 14 -20 163 l-3 162 -19 -70z
m46 -422 c3 -52 -4 -68 -16 -37 -3 9 -6 31 -6 49 0 25 -5 35 -20 40 -11 3 -20
10 -20 15 0 4 13 3 29 -3 27 -10 30 -16 33 -64z"/>
<path d="M3270 1974 l0 -150 31 -11 32 -12 -7 82 c-6 76 -37 221 -50 235 -3 3
-6 -62 -6 -144z"/>
<path d="M3534 2047 c-3 -8 -4 -28 -2 -44 3 -28 3 -28 69 -25 51 2 69 -1 79
-13 20 -24 22 -845 3 -882 -7 -14 -13 -29 -13 -33 0 -12 58 -30 95 -30 l32 0
12 123 c9 88 9 149 2 217 -14 129 -14 597 0 605 19 13 57 -5 107 -50 56 -50
62 -53 62 -27 0 26 -96 129 -143 153 -34 18 -51 20 -111 15 -93 -9 -115 -9
-153 -1 -25 6 -34 3 -39 -8z"/>
<path d="M1914 2028 c3 -13 6 -26 6 -30 0 -5 112 -8 249 -8 247 0 249 0 254
22 3 12 4 25 1 30 -3 4 -120 8 -261 8 l-255 0 6 -22z"/>
<path d="M1914 1965 c-4 -8 -3 -22 0 -31 6 -15 19 -16 105 -10 124 8 134 5
126 -44 -4 -26 -2 -40 8 -48 16 -14 47 -6 48 12 0 6 1 27 2 46 l2 35 107 -3
c100 -3 107 -2 113 17 3 12 3 25 0 31 -4 6 -99 10 -256 10 -213 0 -250 -2
-255 -15z"/>
<path d="M3488 1839 c-23 -40 -25 -174 -3 -206 17 -24 23 -78 11 -110 -6 -19
-4 -23 13 -23 20 0 21 -5 21 -180 0 -163 7 -209 24 -164 3 9 6 89 6 179 0 160
0 163 23 170 13 4 17 8 10 12 -18 7 -16 85 2 109 21 27 20 170 -1 212 -13 27
-21 32 -52 32 -31 0 -40 -5 -54 -31z"/>
<path d="M2545 1813 c-11 -2 -63 -13 -115 -24 -52 -11 -114 -24 -137 -29 -66
-15 -123 -28 -180 -40 l-53 -12 0 -707 0 -707 -122 -14 c-219 -23 -222 -28
-21 -29 l192 -1 239 -80 c131 -44 242 -80 245 -80 4 0 7 389 7 865 0 818 -1
865 -17 864 -10 -1 -27 -3 -38 -6z"/>
<path d="M2650 1685 l0 -25 114 0 114 0 6 -27 c3 -16 8 -158 11 -318 3 -159 8
-319 10 -355 2 -36 7 -210 11 -388 l6 -322 147 2 146 1 -122 10 -123 10 0 718
0 719 -160 0 -160 0 0 -25z"/>
<path d="M1129 1671 c-149 -7 -176 -16 -205 -72 -12 -24 -14 -47 -9 -105 7
-68 9 -74 30 -74 12 0 24 2 27 5 3 3 154 7 335 8 262 2 333 -1 343 -11 6 -7
24 -12 38 -10 31 3 39 27 41 118 1 61 13 80 48 80 26 0 43 -27 43 -68 0 -22
48 -138 67 -161 1 -2 14 1 28 7 53 25 49 132 -10 218 -33 48 -39 52 -88 58
-80 9 -535 14 -688 7z m193 -53 c4 -11 107 -19 251 -17 38 0 74 -4 81 -10 8
-7 10 -27 6 -65 -3 -31 -8 -57 -10 -58 -3 -2 -157 -2 -342 0 l-337 3 -7 36
c-18 97 28 123 218 123 95 0 138 -4 140 -12z"/>
<path d="M1000 1225 l0 -85 230 0 230 0 0 85 0 85 -230 0 -230 0 0 -85z"/>
<path d="M1500 1225 l0 -85 230 0 230 0 0 85 0 85 -230 0 -230 0 0 -85z"/>
<path d="M757 1103 c-4 -3 -7 -42 -7 -85 l0 -78 230 0 230 0 0 85 0 85 -223 0
c-123 0 -227 -3 -230 -7z"/>
<path d="M1250 1025 l0 -85 230 0 231 0 -3 83 -3 82 -227 2 -228 3 0 -85z"/>
<path d="M3105 930 l60 -7 -57 -1 c-44 -2 -58 -6 -58 -17 0 -12 22 -15 118
-18 l117 -3 -117 -2 -118 -2 0 -35 0 -35 98 -1 c53 0 117 -4 142 -8 25 -4 -18
-6 -97 -3 -128 4 -143 3 -143 -12 0 -15 38 -16 440 -16 l440 0 0 58 c0 32 -5
63 -12 70 -9 9 -9 12 0 12 7 0 12 7 12 15 0 13 -55 15 -442 13 -244 -1 -416
-4 -383 -8z m488 -7 c-13 -2 -33 -2 -45 0 -13 2 -3 4 22 4 25 0 35 -2 23 -4z
m-173 -13 c13 -9 13 -10 0 -10 -8 0 -22 5 -30 10 -13 9 -13 10 0 10 8 0 22 -5
30 -10z m415 -9 c68 -6 69 -6 28 -14 -23 -4 -48 -4 -57 -1 -8 3 -50 12 -93 20
l-78 14 65 -6 c36 -4 97 -9 135 -13z m-245 -22 c42 -6 35 -7 -30 -3 -47 3 -92
10 -100 15 -10 7 0 8 30 3 25 -4 70 -10 100 -15z m-212 2 c24 -15 10 -46 -22
-49 -41 -5 -67 41 -28 51 28 8 36 7 50 -2z m315 -18 c-7 -2 -19 -2 -25 0 -7 3
-2 5 12 5 14 0 19 -2 13 -5z m-383 -43 c8 -5 11 -10 5 -10 -5 0 -17 5 -25 10
-8 5 -10 10 -5 10 6 0 17 -5 25 -10z m475 0 c17 -7 16 -9 -10 -9 -16 0 -50 4
-75 8 l-45 8 55 1 c30 0 64 -3 75 -8z m-397 -37 c-10 -2 -26 -2 -35 0 -10 3
-2 5 17 5 19 0 27 -2 18 -5z"/>
<path d="M1000 825 l0 -85 230 0 231 0 -3 83 -3 82 -227 3 -228 2 0 -85z"/>
<path d="M1507 904 c-4 -4 -7 -43 -7 -86 l0 -78 230 0 231 0 -3 83 -3 82 -221
3 c-121 1 -223 -1 -227 -4z"/>
<path d="M3430 727 c0 -10 22 -14 88 -15 48 0 111 -5 141 -11 68 -14 143 -14
212 0 75 14 191 13 274 -4 l70 -14 -190 -3 c-104 -1 -224 -2 -265 -3 -41 0
-116 3 -166 7 -50 5 -107 6 -128 2 -33 -6 -36 -10 -36 -41 l0 -35 138 -1 c75
-1 184 -5 242 -9 86 -5 61 -7 -137 -8 -209 -2 -243 -4 -243 -17 0 -13 55 -15
434 -15 l434 0 1 90 1 90 -435 0 c-356 0 -435 -2 -435 -13z"/>
<path d="M757 703 c-4 -3 -7 -42 -7 -85 l0 -78 230 0 230 0 0 85 0 85 -223 0
c-123 0 -227 -3 -230 -7z"/>
<path d="M1250 625 l0 -85 230 0 230 0 0 85 0 85 -230 0 -230 0 0 -85z"/>
<path d="M3050 495 l0 -35 98 -1 c104 -1 90 -11 -35 -25 -44 -4 -63 -11 -63
-20 0 -18 41 -18 200 2 226 27 353 35 515 32 141 -2 160 -1 163 14 2 9 -1 19
-6 22 -5 3 -187 8 -403 10 -217 2 -398 6 -404 7 -44 10 139 14 448 10 271 -3
367 -1 367 8 0 8 -116 11 -440 11 l-440 0 0 -35z"/>
<path d="M1000 420 l0 -80 230 0 230 0 0 80 0 80 -230 0 -230 0 0 -80z"/>
<path d="M1500 420 l0 -80 230 0 230 0 0 80 0 80 -230 0 -230 0 0 -80z"/>
<path d="M3395 415 c-66 -8 -151 -18 -190 -24 -38 -6 -89 -11 -112 -11 -36 0
-43 -3 -43 -20 0 -20 7 -20 440 -20 l439 0 -1 45 -1 45 -206 -1 c-113 -1 -260
-7 -326 -14z m35 -25 c-260 -42 -294 -46 -255 -31 11 5 58 14 104 20 46 6 87
13 89 16 3 3 28 4 56 4 l51 -2 -45 -7z m385 -7 c-79 -3 -250 -21 -280 -30 -11
-3 -17 -2 -13 2 15 16 154 32 258 32 62 -1 77 -2 35 -4z"/>
</g>
</svg>
